<svg xmlns="http://www.w3.org/2000/svg" xmlns:xlink="http://www.w3.org/1999/xlink" width="161.339" height="133.371" viewBox="0 0 161.339 133.371">
  <defs>
    <filter id="Union_1" x="0" y="0" width="161.339" height="133.371" filterUnits="userSpaceOnUse">
      <feOffset dy="10" input="SourceAlpha"/>
      <feGaussianBlur stdDeviation="8" result="blur"/>
      <feFlood flood-color="#5ac764" flood-opacity="0.302"/>
      <feComposite operator="in" in2="blur"/>
      <feComposite in="SourceGraphic"/>
    </filter>
    <clipPath id="clip-path">
      <path id="Union_2" data-name="Union 2" d="M56.13,84.369a28.608,28.608,0,0,1-13.566-3.247,28.606,28.606,0,0,1-6.9-5.075L22,62.376,15.415,55.8,8.33,48.708l0,0A28.551,28.551,0,0,1,48.7,8.329h0l7.461,7.463.376-.376L63.632,8.33l0,0A28.551,28.551,0,0,1,104.011,48.7v0L92.919,59.8l-15,15c-.37.419-.725.849-1.126,1.248a28.453,28.453,0,0,1-20.25,8.325l-.059,0Z" fill="#208a3c" stroke="rgba(0,0,0,0)" stroke-miterlimit="10" stroke-width="1"/>
    </clipPath>
  </defs>
  <g id="Groupe_473" data-name="Groupe 473" transform="translate(1109.169 -517.558)">
    <g transform="matrix(1, 0, 0, 1, -1109.17, 517.56)" filter="url(#Union_1)">
      <path id="Union_1-2" data-name="Union 1" d="M56.13,84.369a28.608,28.608,0,0,1-13.566-3.247,28.606,28.606,0,0,1-6.9-5.075L22,62.376,15.415,55.8,8.33,48.708l0,0A28.551,28.551,0,0,1,48.7,8.329h0l7.461,7.463.376-.376L63.632,8.33l0,0A28.551,28.551,0,0,1,104.011,48.7v0L92.919,59.8l-15,15c-.37.419-.725.849-1.126,1.248a28.453,28.453,0,0,1-20.25,8.325l-.059,0Z" transform="translate(24.5 14.5)" fill="#5ac764" stroke="rgba(0,0,0,0)" stroke-miterlimit="10" stroke-width="1"/>
    </g>
    <g id="Groupe_de_masques_13" data-name="Groupe de masques 13" transform="translate(-1084.669 532.058)" clip-path="url(#clip-path)">
      <rect id="Rectangle_262" data-name="Rectangle 262" width="150" height="82" transform="translate(-13.331 21.942)" fill="#208a3c"/>
    </g>
    <text id="_75_100" data-name="75/100" transform="translate(-1029 577)" fill="#fff" font-size="18" font-family="Helvetica"><tspan x="-27.527" y="0">75/100</tspan></text>
  </g>
</svg>
