<svg id="Groupe_475" data-name="Groupe 475" xmlns="http://www.w3.org/2000/svg" width="120.477" height="35.782" viewBox="0 0 120.477 35.782">
  <g id="Groupe_210" data-name="Groupe 210" transform="translate(0 17.512)">
    <g id="Groupe_209" data-name="Groupe 209" transform="translate(0 0)">
      <g id="Groupe_208" data-name="Groupe 208">
        <g id="Groupe_207" data-name="Groupe 207">
          <path id="Tracé_3182" data-name="Tracé 3182" d="M493.036,541.963v.24h2.827v2.614h-2.827v9.655h-4.561v-9.655h-2v-2.374l2-.24v-.4a7.766,7.766,0,0,1,.32-2.24,3.013,3.013,0,0,1,.587-1.28q.826-.693,3.521-.694a28.343,28.343,0,0,1,3.281.214q0,.32-.093,1.28t-.173,1.627l-1.147-.027a4.189,4.189,0,0,0-1.547.133A2.015,2.015,0,0,0,493.036,541.963Z" transform="translate(-486.475 -536.522)" fill="#fff"/>
          <path id="Tracé_3183" data-name="Tracé 3183" d="M517.743,561.567l-.427-1.68a3.815,3.815,0,0,1-3.414,2,4.251,4.251,0,0,1-2.921-1,3.553,3.553,0,0,1-1.133-2.814,3.1,3.1,0,0,1,.654-1.96,3.48,3.48,0,0,1,1.8-1.187,19.451,19.451,0,0,1,4.614-.48,4.788,4.788,0,0,0-.16-1.867,1.881,1.881,0,0,0-.853-.106q-.454,0-1.254.053-1.28.054-3.467.293-.214-1.44-.32-3.094,1.413-.293,2.961-.493a21.77,21.77,0,0,1,2.774-.2,5.854,5.854,0,0,1,3.2.706,3.22,3.22,0,0,1,1.387,1.854,10.47,10.47,0,0,1,.293,2.907l-.027,3.921.08,3.147Zm-.827-2.934v-1.974H516.7a5.389,5.389,0,0,0-2.187.213.846.846,0,0,0-.2.4,2.1,2.1,0,0,0-.067.507,1.09,1.09,0,0,0,.293.88,1.418,1.418,0,0,0,.907.24A4.506,4.506,0,0,0,516.916,558.633Z" transform="translate(-500.966 -543.616)" fill="#fff"/>
          <path id="Tracé_3184" data-name="Tracé 3184" d="M545.365,540.462h4.56v12.269h-4.56Zm.733-2.134a1.973,1.973,0,0,1,0-2.934,2.2,2.2,0,0,1,1.561-.614,2.156,2.156,0,0,1,1.547.614,2,2,0,0,1,0,2.934,2.153,2.153,0,0,1-1.547.614A2.2,2.2,0,0,1,546.1,538.328Z" transform="translate(-522.987 -534.781)" fill="#fff"/>
          <path id="Tracé_3185" data-name="Tracé 3185" d="M570.966,549.11a2.054,2.054,0,0,1,.573.187q0,.587-.133,1.934t-.24,1.907q-.267-.026-.987-.026a21.352,21.352,0,0,0-2.987.187v8.268h-4.561V549.3h3.814l.534,1.974h.027a7.515,7.515,0,0,1,1.653-1.627,2.856,2.856,0,0,1,1.574-.613A3.635,3.635,0,0,1,570.966,549.11Z" transform="translate(-533.692 -543.616)" fill="#fff"/>
          <path id="Tracé_3186" data-name="Tracé 3186" d="M610.943,555.112v6.455h-4.561v-7.441a2.1,2.1,0,0,0-.187-1.174,1.343,1.343,0,0,0-.907-.214l-.32.027a4.742,4.742,0,0,0-1.573.373q.026.561.027,1.974v6.455h-4.561v-7.6a1.676,1.676,0,0,0-.187-1.014,1.343,1.343,0,0,0-.907-.214l-.32.027a4.609,4.609,0,0,0-1.547.347v8.455h-4.561V549.3h3.708l.48,2a5.513,5.513,0,0,1,2.027-1.72,5.341,5.341,0,0,1,2.32-.546,6,6,0,0,1,1.88.293,2.251,2.251,0,0,1,1.241.827,2.459,2.459,0,0,1,.266.88,5.251,5.251,0,0,1,1.947-1.52,5.4,5.4,0,0,1,2.187-.48,6,6,0,0,1,1.88.293,2.251,2.251,0,0,1,1.241.827Q610.943,550.791,610.943,555.112Z" transform="translate(-551.492 -543.616)" fill="#fff"/>
          <path id="Tracé_3187" data-name="Tracé 3187" d="M654.123,561.567l-.427-1.68a3.815,3.815,0,0,1-3.414,2,4.251,4.251,0,0,1-2.921-1,3.553,3.553,0,0,1-1.133-2.814,3.1,3.1,0,0,1,.654-1.96,3.48,3.48,0,0,1,1.8-1.187,19.452,19.452,0,0,1,4.614-.48,4.772,4.772,0,0,0-.16-1.867,1.879,1.879,0,0,0-.854-.106q-.453,0-1.253.053-1.281.054-3.467.293-.214-1.44-.32-3.094,1.413-.293,2.961-.493a21.77,21.77,0,0,1,2.774-.2,5.852,5.852,0,0,1,3.2.706,3.219,3.219,0,0,1,1.387,1.854,10.47,10.47,0,0,1,.293,2.907l-.027,3.921.08,3.147Zm-.827-2.934v-1.974h-.213a5.389,5.389,0,0,0-2.187.213.846.846,0,0,0-.2.4,2.075,2.075,0,0,0-.067.507,1.09,1.09,0,0,0,.293.88,1.418,1.418,0,0,0,.907.24A4.506,4.506,0,0,0,653.3,558.633Z" transform="translate(-585.523 -543.616)" fill="#fff"/>
          <path id="Tracé_3188" data-name="Tracé 3188" d="M694.577,555.6h-4.961l-2.534-4.988a1.784,1.784,0,0,0-.987-.987V555.6h-4.561v-16l4.561-.187v9.1a2.316,2.316,0,0,0,1.094-1.094l2.267-4.081,4.988-.027-2.587,4.161a6.286,6.286,0,0,1-1.333,1.574,11.469,11.469,0,0,1,1.387,2.027Z" transform="translate(-607.413 -537.654)" fill="#fff"/>
          <path id="Tracé_3189" data-name="Tracé 3189" d="M726.82,558.275q.24,0,.88-.053l.4,2.747a12.667,12.667,0,0,1-5.334.961,6.6,6.6,0,0,1-4.707-1.547,6.123,6.123,0,0,1-1.641-4.667,11.553,11.553,0,0,1,.414-3.094,5.3,5.3,0,0,1,.947-2.08,4.687,4.687,0,0,1,2.081-1.014,11.137,11.137,0,0,1,3.014-.427,6.22,6.22,0,0,1,3.6.854,3.963,3.963,0,0,1,1.574,2.361,17.474,17.474,0,0,1,.373,4.041q-1.814.107-3.547.106h-3.788a1.944,1.944,0,0,0,.361,1.28,1.676,1.676,0,0,0,1.027.547,11.177,11.177,0,0,0,1.867.12Q725.006,558.409,726.82,558.275Zm-5.708-5.308q-.08.614-.107,1.387h1.387q1.253,0,1.814-.027a3.389,3.389,0,0,0-.36-1.814,1.387,1.387,0,0,0-1.241-.534,2.563,2.563,0,0,0-1.253.293Q721.192,552.354,721.112,552.968Z" transform="translate(-629.042 -543.659)" fill="#fff"/>
          <path id="Tracé_3190" data-name="Tracé 3190" d="M759.849,549.11a2.054,2.054,0,0,1,.573.187q0,.587-.133,1.934t-.24,1.907q-.267-.026-.987-.026a21.352,21.352,0,0,0-2.987.187v8.268h-4.561V549.3h3.814l.534,1.974h.027a7.515,7.515,0,0,1,1.653-1.627,2.856,2.856,0,0,1,1.574-.613A3.629,3.629,0,0,1,759.849,549.11Z" transform="translate(-650.801 -543.616)" fill="#fff"/>
          <path id="Tracé_3191" data-name="Tracé 3191" d="M785.264,560.863a7.488,7.488,0,0,1-4.281,1.04,21.049,21.049,0,0,1-4.481-.56q.053-.533.253-1.534t.334-1.534q.96.16,2.134.253t2,.093a2.728,2.728,0,0,0,.88-.08.445.445,0,0,0,.067-.147.787.787,0,0,0,.04-.253q0-.534-.667-.72-.214-.053-1.627-.453a4.581,4.581,0,0,1-2.308-1.454,3.92,3.92,0,0,1-.893-2.627,5.372,5.372,0,0,1,.373-1.841,2.538,2.538,0,0,1,.8-1.28,5.123,5.123,0,0,1,1.547-.44,12.555,12.555,0,0,1,2.267-.227,31.44,31.44,0,0,1,4.454.32,16,16,0,0,1-.133,1.613,8.55,8.55,0,0,1-.24,1.427,29.844,29.844,0,0,0-3.654-.294,3.317,3.317,0,0,0-.933.08.293.293,0,0,0-.107.147.764.764,0,0,0-.053.307.593.593,0,0,0,.24.534,4.366,4.366,0,0,0,1.254.453,17.641,17.641,0,0,1,2.067.72,4.238,4.238,0,0,1,1.52,1.12,2.812,2.812,0,0,1,.654,1.92A3.851,3.851,0,0,1,785.264,560.863Z" transform="translate(-666.294 -543.659)" fill="#fff"/>
        </g>
      </g>
    </g>
  </g>
  <g id="Groupe_216" data-name="Groupe 216" transform="translate(15.499 0)">
    <g id="Groupe_211" data-name="Groupe 211" transform="translate(0 0.004)">
      <path id="Tracé_3192" data-name="Tracé 3192" d="M572.889,490.076a4.709,4.709,0,0,0-6.639,0l-5.366,5.366a5.906,5.906,0,0,1,.883-.073A5.815,5.815,0,0,1,567.6,501.2a5.9,5.9,0,0,1-.073.883l5.366-5.366A4.709,4.709,0,0,0,572.889,490.076Z" transform="translate(-548.108 -488.707)" fill="#fff" opacity="0.495"/>
      <path id="Tracé_3193" data-name="Tracé 3193" d="M535.63,510.97l-.359-.359a4.694,4.694,0,1,0-6.639,6.639l2.035,2.035.754.754,1.5,1.5a4.706,4.706,0,0,1-.649-5.3,4.638,4.638,0,0,1,.513-.779c.1-.122.207-.241.321-.355l2.248-2.247,1.082-1.082-.4-.4Z" transform="translate(-527.262 -501.438)" fill="#fff" opacity="0.495"/>
    </g>
    <g id="Groupe_215" data-name="Groupe 215" transform="translate(4.476)">
      <g id="Groupe_214" data-name="Groupe 214">
        <g id="Groupe_212" data-name="Groupe 212" transform="translate(0.95)">
          <path id="Tracé_3194" data-name="Tracé 3194" d="M545.258,496.133a3.718,3.718,0,1,0-3.718-3.718A3.718,3.718,0,0,0,545.258,496.133Z" transform="translate(-541.54 -488.697)" fill="#fff"/>
        </g>
        <g id="Groupe_213" data-name="Groupe 213" transform="translate(0 7.807)">
          <path id="Tracé_3195" data-name="Tracé 3195" d="M551.543,510.61a4.708,4.708,0,0,0-6.639,0h0l-1.165,1.165-1.082,1.082-2.248,2.247c-.114.114-.221.233-.321.355a4.666,4.666,0,0,0-.963,2.066,4.7,4.7,0,0,0,1.1,4.012c.061.069.119.139.185.205a4.775,4.775,0,0,0,.356.321,4.635,4.635,0,0,0,1.626.856,4.693,4.693,0,0,0,.893.169h.01c.145.013.29.022.435.022h.01a4.678,4.678,0,0,0,3.329-1.369h0c.066-.066.124-.136.185-.205l2.466-2.466,1.824-1.824h0A4.708,4.708,0,0,0,551.543,510.61Z" transform="translate(-539.041 -509.241)" fill="#fff"/>
        </g>
      </g>
    </g>
  </g>
</svg>
