<svg xmlns="http://www.w3.org/2000/svg" width="35.496" height="28.4" viewBox="0 0 35.496 28.4">
  <path id="Icon_awesome-user-cog" data-name="Icon awesome-user-cog" d="M33.864,20.706a6.507,6.507,0,0,0,0-2.363l1.431-.826a.4.4,0,0,0,.183-.471,8.324,8.324,0,0,0-1.842-3.184.4.4,0,0,0-.5-.078l-1.431.826a6.512,6.512,0,0,0-2.047-1.181V11.776a.4.4,0,0,0-.316-.394,8.369,8.369,0,0,0-3.672,0,.4.4,0,0,0-.316.394v1.653a6.512,6.512,0,0,0-2.047,1.181l-1.431-.826a.406.406,0,0,0-.5.078,8.324,8.324,0,0,0-1.842,3.184.409.409,0,0,0,.183.471l1.431.826a6.507,6.507,0,0,0,0,2.363l-1.431.826a.4.4,0,0,0-.183.471,8.366,8.366,0,0,0,1.842,3.184.4.4,0,0,0,.5.078l1.431-.826a6.512,6.512,0,0,0,2.047,1.181v1.653a.4.4,0,0,0,.316.394,8.369,8.369,0,0,0,3.672,0,.4.4,0,0,0,.316-.394V25.621a6.512,6.512,0,0,0,2.047-1.181l1.431.826a.406.406,0,0,0,.5-.078A8.324,8.324,0,0,0,35.478,22a.409.409,0,0,0-.183-.471l-1.431-.826Zm-6.351,1.509a2.69,2.69,0,1,1,2.69-2.69A2.693,2.693,0,0,1,27.512,22.215ZM12.425,14.2a7.1,7.1,0,1,0-7.1-7.1A7.1,7.1,0,0,0,12.425,14.2Zm11.16,12.564c-.128-.067-.255-.144-.377-.216l-.438.255a2.176,2.176,0,0,1-2.69-.4,10.114,10.114,0,0,1-2.23-3.861A2.17,2.17,0,0,1,18.843,20l.438-.255q-.008-.216,0-.433l-.438-.255a2.167,2.167,0,0,1-.993-2.535c.05-.161.122-.322.177-.483-.211-.017-.416-.067-.632-.067h-.926a9.656,9.656,0,0,1-8.087,0H7.455A7.457,7.457,0,0,0,0,23.43v2.307A2.663,2.663,0,0,0,2.662,28.4H22.187a2.659,2.659,0,0,0,1.509-.471,2.16,2.16,0,0,1-.111-.655Z" fill="#5ac764"/>
</svg>
